<svg id="Capa_1" enable-background="new 0 0 512 512" height="512" viewBox="0 0 512 512" width="512" xmlns="http://www.w3.org/2000/svg"><g><path d="m226.826 437.936c6.851-6.872 15.963-10.657 25.659-10.657 9.695 0 18.808 3.785 25.658 10.657 1.465 1.47 3.388 2.206 5.312 2.206 1.915 0 3.831-.729 5.295-2.188 2.934-2.924 2.941-7.673.017-10.606-9.685-9.717-22.569-15.068-36.281-15.068-13.713 0-26.598 5.351-36.282 15.068-2.925 2.934-2.917 7.682.017 10.606 2.932 2.923 7.681 2.917 10.605-.018z"/><path d="m208.698 349.62c2.978-2.88 3.057-7.628.177-10.605-2.878-2.977-7.627-3.058-10.604-.177-7.482 7.237-19.638 7.241-27.097.007-2.974-2.884-7.722-2.811-10.605.162-2.884 2.974-2.812 7.722.162 10.605 6.606 6.407 15.289 9.61 23.978 9.61 8.683 0 17.371-3.201 23.989-9.602z"/><path d="m344.26 349.62c2.978-2.88 3.057-7.628.177-10.605-2.878-2.977-7.627-3.058-10.604-.177-7.48 7.235-19.653 7.234-27.134 0-2.979-2.881-7.727-2.8-10.605.177s-2.8 7.726.178 10.605c6.615 6.398 15.306 9.597 23.995 9.597s17.378-3.199 23.993-9.597z"/><path d="m491.977 98.381c-.783-24.573-20.061-44.79-44.414-46.993-7.595-11.488-20.427-18.478-34.358-18.478-3.483 0-6.983.454-10.457 1.359-.061-.13-.123-.261-.188-.395-9.388-19.545-29.479-32.174-51.183-32.174-31.318 0-56.798 25.465-56.798 56.767 0 .275.003.542.007.799-16.309 4.662-27.959 18.761-29.618 35.453-8.129-6.614-18.457-10.048-29.056-9.452-7.948-16.992-24.941-27.865-43.824-27.865-.864 0-1.722.031-2.577.076-5.292-18.352-22.739-31.153-42.333-30.097-7.87-16.7-24.6-27.381-43.167-27.381-18.586 0-35.311 10.689-43.145 27.38-11.1-.598-22.084 3.321-30.38 10.876-8.773 7.99-13.605 18.933-13.605 30.812 0 3.917.475 6.67.984 8.611-.529.44-1.072.885-1.505 1.24-8.172 6.711-12.86 16.625-12.86 27.199 0 19.406 15.789 35.194 35.196 35.194h60.498c-5.895 6.504-9.204 14.966-9.204 23.908 0 13.44 7.468 25.164 18.467 31.246-13.884 26.423-21.404 56.942-22.359 90.968h-16.559c-13.045 0-23.658 10.613-23.658 23.657v15.988c0 11.177 5.533 23.051 15.181 32.578 8.547 8.439 19.227 13.956 29.524 15.457 3.096 11.12 7.73 22.494 13.832 33.843-5.927 11.803-10.742 24.744-10.742 34.201 0 12.006 4.377 22.166 12.659 29.381 7.219 6.29 16.849 9.754 27.115 9.754 19.766 0 39.774-13.442 39.774-39.135 0-17.711-16.888-47.648-26.342-59.431-2.747-3.423-7.128-7.972-13.442-7.972-.005 0-.011 0-.016 0-6.313.007-10.677 4.554-13.412 7.978-1.983 2.472-4.294 5.75-6.706 9.538-4.24-9.078-7.41-18.067-9.475-26.791-.013-.061-.03-.121-.045-.182-1.843-7.843-2.793-15.471-2.793-22.749v-41.826c30.719-3.941 44.959-18.449 55.544-29.244 10.749-10.963 16.668-17.001 34.276-12.461 7.933 2.044 14.669 3.84 20.612 5.425 20.169 5.378 30.293 8.078 41.073 8.078 10.761 0 20.849-2.689 40.946-8.047 5.975-1.593 12.747-3.398 20.741-5.457 17.593-4.538 23.504 1.5 34.244 12.456 10.584 10.797 24.821 25.308 55.546 29.25v41.826c0 7.242-.929 14.71-2.666 22.268-.097.313-.169.637-.224.966-11.876 49.741-58.847 103.195-111.402 122.666-13.848 5.152-25.664 7.551-37.186 7.551-11.541 0-23.366-2.399-37.229-7.557-8.469-3.13-17.009-7.219-25.383-12.154-3.564-2.102-8.166-.915-10.27 2.654-2.103 3.568-.914 8.166 2.654 10.269 9.142 5.387 18.494 9.862 27.783 13.295 15.574 5.794 29.062 8.493 42.444 8.493 13.364 0 26.842-2.699 42.406-8.489 32.68-12.107 63.76-35.776 87.516-66.646 15.205-19.759 26.164-41.156 31.923-61.745 10.31-1.493 21.007-7.013 29.564-15.463 9.647-9.526 15.181-21.401 15.181-32.578v-15.988c0-13.044-10.613-23.657-23.658-23.657h-16.565c-1.637-58.637-22.323-97.566-43.49-122.226h35.193c4.143 0 7.5-3.358 7.5-7.5s-3.357-7.5-7.5-7.5h-128.216c-11.793 0-21.387-9.593-21.387-21.385 0-8.192 4.829-15.781 12.311-19.337.396-.189.709-.323.955-.429 4.075-1.756 5.899-4.715 5.579-9.046-.02-.275-.05-.65-.05-1.179 0-12.029 8.154-22.465 19.847-25.383.858-.216 1.554-.37 2.114-.494 2.294-.507 9.274-2.052 8.112-10.898-.111-.851-.251-1.91-.251-3.59 0-23.03 18.75-41.767 41.798-41.767 15.973 0 30.755 9.291 37.667 23.681.778 1.613 1.131 2.697 1.413 3.568.504 1.554 1.442 4.446 4.62 6.02 3.221 1.595 6.068.596 8.148-.134.557-.195 1.25-.439 2.077-.702 2.621-.812 5.279-1.223 7.901-1.223 9.672 0 18.514 5.305 23.1 13.853 1.472 2.95 4.248 4.6 7.521 4.433 18.308.314 33.175 15.418 33.175 33.742 0 .501-.015.884-.026 1.184-.104 2.828.371 6.381 5.02 8.782.251.13.593.304 1.09.606 6.425 3.851 10.416 10.868 10.416 18.313 0 11.792-9.594 21.385-21.387 21.385h-26.902c-4.143 0-7.5 3.358-7.5 7.5s3.357 7.5 7.5 7.5h26.902c20.063 0 36.387-16.322 36.387-36.385 0-12.237-6.312-23.785-16.523-30.442zm-360.26 294.734c.004-.005.008-.009.012-.014.743-.931 1.313-1.523 1.716-1.896.408.373.985.97 1.739 1.91 9.278 11.563 23.041 37.672 23.041 50.043 0 16.672-12.443 24.135-24.774 24.135s-24.774-7.463-24.774-24.135c-.001-12.371 13.761-38.48 23.04-50.043zm-93.021-266.803c-11.137 0-20.196-9.059-20.196-20.194 0-6.066 2.689-11.754 7.374-15.601 5.575-4.569 9.604-7.871 6.938-15.296-.415-1.154-.931-2.591-.931-6.151 0-7.605 3.092-14.609 8.705-19.722 5.589-5.089 13.064-7.608 20.511-6.912.784.074 1.321.171 1.794.257 5.072.918 8.553-1.126 10.366-6.07.144-.39.329-.901.619-1.586 5.107-12.173 16.936-20.037 30.135-20.037 13.192 0 25.034 7.869 30.156 20.019.276.662.458 1.173.599 1.562 1.788 4.97 5.281 7.029 10.369 6.112.479-.086 1.021-.184 1.81-.257 12.585-1.166 23.99 6.647 27.831 18.158-11.51 4.4-21.095 13.115-26.51 24.674-11.264-.622-22.448 3.344-30.875 11.019-8.589 7.824-13.438 18.448-13.761 30.026h-64.934zm32.906 222.671c-6.813-6.728-10.721-14.711-10.721-21.904v-15.988c0-4.773 3.884-8.657 8.658-8.657h16.454v41.114c0 4.995.396 10.12 1.145 15.334-5.426-1.897-10.916-5.336-15.536-9.899zm372.487-37.892v15.988c0 7.193-3.907 15.177-10.721 21.904-4.628 4.57-10.121 8.02-15.556 9.915.765-5.23 1.165-10.363 1.165-15.35v-41.114h16.454c4.774 0 8.658 3.884 8.658 8.657zm-149.873-145.871c0-.004 0-.008 0-.012h60.584c30.496 29.58 47.358 71.337 49.037 121.362-24.102-3.593-34.984-14.693-44.694-24.599-11.172-11.397-22.719-23.183-48.699-16.481-8.053 2.073-14.858 3.887-20.862 5.488-18.833 5.021-28.286 7.542-37.082 7.542-8.814 0-18.304-2.53-37.208-7.572-5.973-1.593-12.741-3.397-20.734-5.457-25.997-6.701-37.552 5.086-48.729 16.485-9.712 9.904-20.597 21.002-44.696 24.594 1.078-32.339 8.469-61.13 22.005-85.772.829.058 1.662.098 2.505.098h132.896c19.671 0 35.677-16.004 35.677-35.676zm-15.006-.156c0 .052.005.104.005.156 0 11.401-9.276 20.676-20.679 20.676h-132.895c-11.387 0-20.65-9.275-20.65-20.676 0-6.219 2.75-12.039 7.555-15.978 5.619-4.621 9.679-7.959 7.003-15.412-.155-.432-.323-.905-.475-1.505-.009-.044-.021-.087-.031-.13-.248-1.03-.445-2.434-.445-4.647 0-7.784 3.159-14.948 8.895-20.172 5.703-5.195 13.332-7.771 20.963-7.056.813.075 1.366.174 1.854.262 5.113.915 8.605-1.155 10.393-6.146.143-.398.329-.921.599-1.571 5.221-12.43 17.307-20.462 30.788-20.462s25.567 8.032 30.792 20.471c.286.68.476 1.204.622 1.603 1.812 4.966 5.31 7.02 10.389 6.104.483-.087 1.031-.186 1.838-.26 6.762-.627 13.407 1.285 18.755 5.23-5.379 6.445-8.521 14.654-8.521 23.274-.002 19.003 14.647 34.641 33.245 36.239z"/><path d="m328.264 80.426c-14.254 2.256-19.665 10.523-21.695 17.062-1.228 3.956.983 8.158 4.939 9.386.74.23 1.489.339 2.226.339 3.199 0 6.162-2.063 7.161-5.278.832-2.681 2.637-5.573 9.715-6.693 4.091-.647 6.883-4.489 6.235-8.581-.648-4.091-4.483-6.883-8.581-6.235z"/><path d="m161.408 112.373c-10.048 1.586-18.079 7.859-20.959 16.371-1.327 3.924.777 8.181 4.7 9.508.798.27 1.608.397 2.405.397 3.127 0 6.046-1.972 7.104-5.098 1.086-3.211 4.569-5.648 9.09-6.362 4.091-.646 6.885-4.486 6.238-8.578-.645-4.091-4.482-6.883-8.578-6.238z"/><path d="m65.524 55.19c-12.81 5.579-15.882 14.668-16.205 21.31-.2 4.137 2.991 7.654 7.128 7.854.124.006.247.009.369.009 3.976 0 7.291-3.123 7.485-7.137.126-2.598 1.081-5.614 7.211-8.284 3.798-1.654 5.536-6.073 3.882-9.871-1.652-3.796-6.073-5.535-9.87-3.881z"/></g></svg>